{"accessors" : [{"bufferView" : 0, "byteOffset" : 0, "componentType" : 5123, "count" : 15378, "type" : "SCALAR", "max" : [3385], "min" : [0]}, {"bufferView" : 1, "byteOffset" : 0, "componentType" : 5126, "count" : 3386, "type" : "VEC3", "max" : [0.18300685286521912, 0.2615490257740021, 0.4983939230442047], "min" : [-0.18203863501548767, -0.26290521025657654, -0.4978576600551605], "name" : "POSITION"}, {"bufferView" : 1, "byteOffset" : 12, "componentType" : 5126, "count" : 3386, "type" : "VEC2", "max" : [0.9995794892311096, 1.999590516090393], "min" : [0.0004205214499961585, 1.000409483909607], "name" : "TEXCOORD_0"}], "asset" : {"generator" : "Aspose.3D 24.9.1", "version" : "2.0"}, "buffers" : [{"uri" : "data:application/octet-stream;base64,", "byteLength" : 98484}], "bufferViews" : [{"buffer" : 0, "byteOffset" : 0, "byteLength" : 30756, "target" : 34963}, {"buffer" : 0, "byteOffset" : 30760, "byteLength" : 67720, "byteStride" : 20, "target" : 34962}], "images" : [{"uri" : "data:image/png;base64,"}], "materials" : [{"pbrMetallicRoughness" : {"baseColorFactor" : [1, 1, 1, 1], "baseColorTexture" : {"index" : 0, "texCoord" : 0}, "metallicFactor" : 1, "roughnessFactor" : 0.9036020036098448}, "emissiveFactor" : [0, 0, 0], "alphaMode" : "OPAQUE", "doubleSided" : false}], "meshes" : [{"primitives" : [{"attributes" : {"POSITION" : 1, "TEXCOORD_0" : 2}, "indices" : 0, "material" : 0, "mode" : 4}]}], "nodes" : [{"mesh" : 0, "name" : "geometry_0"}, {"children" : [0], "name" : "world"}], "samplers" : [{"magFilter" : 9729, "minFilter" : 9729, "wrapS" : 10497, "wrapT" : 10497}], "scene" : 0, "scenes" : [{"nodes" : [1]}], "textures" : [{"sampler" : 0, "source" : 0, "name" : ""}]}